<svg width="31" height="31" viewBox="0 0 31 31" fill="none" xmlns="http://www.w3.org/2000/svg">
<path d="M1 4.22222C1 3.36764 1.30553 2.54805 1.84939 1.94377C2.39325 1.33948 3.13087 1 3.9 1H12.6V30H3.9C3.13087 30 2.39325 29.6605 1.84939 29.0562C1.30553 28.4519 1 27.6324 1 26.7778V4.22222ZM18.4 1H27.1C27.8691 1 28.6068 1.33948 29.1506 1.94377C29.6945 2.54805 30 3.36764 30 4.22222V12.2778H18.4V1ZM18.4 18.7222H30V26.7778C30 27.6324 29.6945 28.4519 29.1506 29.0562C28.6068 29.6605 27.8691 30 27.1 30H18.4V18.7222Z" stroke="#F0F0F0" stroke-width="2" stroke-linecap="round" stroke-linejoin="round"/>
</svg>
