<svg width="30" height="30" viewBox="0 0 30 30" fill="none" xmlns="http://www.w3.org/2000/svg">
<path d="M5.795 3.374C8.085 2.542 11.34 2 15 2C18.66 2 21.915 2.54 24.205 3.374C26.61 4.25 27.5 5.254 27.5 6C27.5 6.748 26.61 7.75 24.205 8.626C21.915 9.458 18.66 10 15 10C11.34 10 8.085 9.46 5.795 8.626C3.39 7.75 2.5 6.746 2.5 6C2.5 5.252 3.39 4.25 5.795 3.374ZM27.5 9.396V12C27.5 12.748 26.61 13.75 24.205 14.626C21.915 15.458 18.66 16 15 16C11.34 16 8.085 15.46 5.795 14.626C3.39 13.75 2.5 12.746 2.5 12V9.396C3.1775 9.8 3.95 10.152 4.76 10.446C7.445 11.422 11.0675 12 15 12C18.9325 12 22.555 11.422 25.24 10.446C26.0378 10.1612 26.7954 9.80922 27.5 9.396ZM30 6C30 3.986 27.8125 2.49 25.24 1.554C22.555 0.578 18.9325 0 15 0C11.0675 0 7.445 0.578 4.76 1.554C2.1875 2.49 0 3.986 0 6V24C0 26.014 2.1875 27.51 4.76 28.446C7.445 29.42 11.0675 30 15 30C18.9325 30 22.555 29.422 25.24 28.446C27.8125 27.51 30 26.014 30 24V6ZM27.5 15.396V18C27.5 18.748 26.61 19.75 24.205 20.626C21.915 21.458 18.66 22 15 22C11.34 22 8.085 21.46 5.795 20.626C3.39 19.75 2.5 18.746 2.5 18V15.396C3.1775 15.8 3.95 16.152 4.76 16.446C7.445 17.42 11.0675 18 15 18C18.9325 18 22.555 17.422 25.24 16.446C26.0378 16.1612 26.7954 15.8092 27.5 15.396ZM27.5 21.396V24C27.5 24.748 26.61 25.75 24.205 26.626C21.915 27.458 18.66 28 15 28C11.34 28 8.085 27.46 5.795 26.626C3.39 25.75 2.5 24.746 2.5 24V21.396C3.1775 21.8 3.95 22.152 4.76 22.446C7.445 23.42 11.0675 24 15 24C18.9325 24 22.555 23.422 25.24 22.446C26.05 22.152 26.8225 21.8 27.5 21.396Z" fill="#F0F0F0"/>
</svg>
