<svg width="31" height="31" viewBox="0 0 31 31" fill="none" xmlns="http://www.w3.org/2000/svg">
<path d="M14.0909 19.9285H16.9091V24.3571H14.0909V19.9285ZM21.1364 17.7142H23.9546V24.3571H21.1364V17.7142ZM7.04547 13.2856H9.86365V24.3571H7.04547V13.2856Z" fill="#F0F0F0"/>
<path d="M28.1818 3.32143H23.9545V2.21429C23.9545 1.62702 23.6576 1.06381 23.1291 0.648549C22.6006 0.23329 21.8838 0 21.1364 0H9.86364C9.11621 0 8.39939 0.23329 7.87088 0.648549C7.34237 1.06381 7.04545 1.62702 7.04545 2.21429V3.32143H2.81818C2.07075 3.32143 1.35394 3.55472 0.825426 3.96998C0.296915 4.38524 0 4.94845 0 5.53571V28.7857C0 29.373 0.296915 29.9362 0.825426 30.3514C1.35394 30.7667 2.07075 31 2.81818 31H28.1818C28.9292 31 29.6461 30.7667 30.1746 30.3514C30.7031 29.9362 31 29.373 31 28.7857V5.53571C31 4.94845 30.7031 4.38524 30.1746 3.96998C29.6461 3.55472 28.9292 3.32143 28.1818 3.32143ZM9.86364 2.21429H21.1364V6.64286H9.86364V2.21429ZM28.1818 28.7857H2.81818V5.53571H7.04545V8.85714H23.9545V5.53571H28.1818V28.7857Z" fill="#F0F0F0"/>
</svg>
