<svg width="30" height="30" viewBox="0 0 30 30" fill="none" xmlns="http://www.w3.org/2000/svg">
<path d="M26.8575 22.6744H24.4554C24.2914 22.6744 24.1377 22.7477 24.0352 22.8768C23.796 23.1733 23.5397 23.4593 23.2698 23.7314C22.1658 24.8596 20.858 25.7588 19.4189 26.3791C17.928 27.022 16.3255 27.3518 14.7071 27.3488C13.0704 27.3488 11.4849 27.0209 9.99516 26.3791C8.55606 25.7588 7.24835 24.8596 6.14433 23.7314C5.03833 22.607 4.15644 21.2742 3.54749 19.807C2.91537 18.2861 2.5976 16.671 2.5976 15C2.5976 13.3291 2.91878 11.714 3.54749 10.1931C4.1557 8.72446 5.03042 7.40237 6.14433 6.26865C7.25823 5.13493 8.55323 4.24191 9.99516 3.62098C11.4849 2.97912 13.0704 2.65121 14.7071 2.65121C16.3437 2.65121 17.9292 2.97563 19.4189 3.62098C20.8609 4.24191 22.1559 5.13493 23.2698 6.26865C23.5397 6.54423 23.7926 6.83027 24.0352 7.1233C24.1377 7.25237 24.2948 7.32562 24.4554 7.32562H26.8575C27.0728 7.32562 27.206 7.08144 27.0864 6.89655C24.4657 2.73842 19.8802 -0.0139007 14.6695 5.28092e-05C6.4826 0.020983 -0.0812452 6.80586 0.000760102 15.1535C0.0827654 23.3686 6.63636 30 14.7071 30C19.9041 30 24.4691 27.2512 27.0864 23.1035C27.2026 22.9186 27.0728 22.6744 26.8575 22.6744ZM29.8951 14.7803L25.0466 10.8733C24.8655 10.7268 24.6024 10.8593 24.6024 11.0931V13.7442H13.8733C13.723 13.7442 13.6 13.8698 13.6 14.0233V15.9768C13.6 16.1303 13.723 16.2558 13.8733 16.2558H24.6024V18.907C24.6024 19.1407 24.8689 19.2733 25.0466 19.1268L29.8951 15.2198C29.9278 15.1937 29.9542 15.1603 29.9724 15.1223C29.9906 15.0842 30 15.0424 30 15C30 14.9577 29.9906 14.9159 29.9724 14.8778C29.9542 14.8397 29.9278 14.8064 29.8951 14.7803Z" fill="#F0F0F0"/>
</svg>
