<svg width="32" height="32" viewBox="0 0 32 32" fill="none" xmlns="http://www.w3.org/2000/svg">
<path d="M14.8461 25.2308H17.1538M22.923 11.3846V6.76923M12.5384 11.3846V3.30769H5.61536V11.3846M27.5384 3.88462C27.5384 4.26343 27.4638 4.63853 27.3189 4.98851C27.1739 5.33849 26.9614 5.65649 26.6935 5.92435C26.4257 6.19221 26.1077 6.40469 25.7577 6.54965C25.4077 6.69462 25.0326 6.76923 24.6538 6.76923H21.1923C20.4272 6.76923 19.6935 6.46532 19.1525 5.92435C18.6116 5.38338 18.3077 4.64966 18.3077 3.88462C18.3077 3.11957 18.6116 2.38585 19.1525 1.84488C19.6935 1.30391 20.4272 1 21.1923 1H24.6538C25.0326 1 25.4077 1.07461 25.7577 1.21958C26.1077 1.36454 26.4257 1.57702 26.6935 1.84488C26.9614 2.11275 27.1739 2.43074 27.3189 2.78072C27.4638 3.1307 27.5384 3.5058 27.5384 3.88462Z" stroke="#F0F0F0" stroke-width="2" stroke-linecap="round" stroke-linejoin="round"/>
<path d="M28.6923 19.4614H3.30769C2.03319 19.4614 1 20.4946 1 21.7691V28.6922C1 29.9667 2.03319 30.9999 3.30769 30.9999H28.6923C29.9668 30.9999 31 29.9667 31 28.6922V21.7691C31 20.4946 29.9668 19.4614 28.6923 19.4614Z" stroke="#F0F0F0" stroke-width="2" stroke-linecap="round" stroke-linejoin="round"/>
<path d="M28.6923 19.4612V13.692C28.6923 13.0799 28.4492 12.493 28.0164 12.0602C27.5836 11.6274 26.9966 11.3843 26.3846 11.3843H5.61537C5.00333 11.3843 4.41636 11.6274 3.98359 12.0602C3.55081 12.493 3.30768 13.0799 3.30768 13.692V19.4612" stroke="#F0F0F0" stroke-width="2" stroke-linecap="round" stroke-linejoin="round"/>
</svg>
